<?xml version="1.0" encoding="UTF-8"?>
<svg version="1.1" xmlns="http://www.w3.org/2000/svg" width="512" height="512">
<path d="M0 0 C168.96 0 337.92 0 512 0 C512 168.96 512 337.92 512 512 C343.04 512 174.08 512 0 512 C0 343.04 0 174.08 0 0 Z " fill="#23003E" transform="translate(0,0)"/>
<path d="M0 0 C0.99 0.33 1.98 0.66 3 1 C4.23308038 3.74696124 5.27060776 6.41204016 6.25 9.25 C6.51167969 9.97574219 6.77335937 10.70148438 7.04296875 11.44921875 C8.88034918 16.60573801 10.59916554 21.80101321 12.31871033 26.99765015 C16.60336785 39.93545346 21.11996098 52.78472951 25.6875 65.625 C26.44092794 67.74863664 27.19418374 69.87233436 27.94726562 71.99609375 C31.2644763 81.34327 34.59944819 90.68275618 38 100 C39.13896934 96.04224063 40.27104759 92.0825795 41.39697266 88.12109375 C41.7916541 86.73283771 42.18713076 85.34480745 42.58349609 83.95703125 C45.54455712 73.56734342 48.24100043 63.12747855 50.83056641 52.63916016 C52.71616138 45.03674507 54.80069945 37.51780142 57 30 C58.802858 23.78218859 60.23368373 18.1816054 57.8125 11.9375 C55.68474823 8.33414111 55.68474823 8.33414111 51 3 C61.56 3 72.12 3 83 3 C81 7 81 7 78.25 8.9375 C70.01464306 15.51854403 67.71806471 28.74326209 65.5 38.5 C64.9117423 40.96943978 64.3205698 43.43818694 63.7265625 45.90625 C63.43813477 47.11023438 63.14970703 48.31421875 62.85253906 49.5546875 C61.65164518 54.40778441 60.28497365 59.20417127 58.875 64 C56.90771225 70.71731596 55.09844909 77.45034703 53.4375 84.25 C51.78503986 91.01113597 49.96113253 97.68591238 47.94726562 104.34765625 C46.1221182 110.44285262 44.52057739 116.58801525 42.9375 122.75 C41.08396826 129.95798321 39.13611958 137.09084392 36.87890625 144.18359375 C35.45312162 148.75244139 34.2238127 153.37361715 33 158 C31.68 158 30.36 158 29 158 C27.66200173 154.18310188 26.32978599 150.3642327 25.00219727 146.54370117 C24.33567076 144.62905955 23.66498008 142.71586912 22.99414062 140.80273438 C20.76735623 134.40934407 18.67952653 128.00998864 16.8125 121.5 C13.05097847 108.40266802 8.65185011 95.49493 4.38543701 82.55541992 C3.21008393 78.98876037 2.03780442 75.42109088 0.86523438 71.85351562 C-1.42023952 64.90137471 -3.70901435 57.9503268 -6 51 C-8.97538567 58.35160735 -11.71935597 65.73304996 -14.25 73.25 C-14.61351562 74.29929687 -14.97703125 75.34859375 -15.3515625 76.4296875 C-15.69445312 77.44804687 -16.03734375 78.46640625 -16.390625 79.515625 C-16.70032227 80.42602539 -17.01001953 81.33642578 -17.32910156 82.27441406 C-18.45825733 86.86171207 -18.52260763 89.96860368 -16.375 94.20703125 C-15.59693941 95.41770715 -14.8040358 96.6189168 -14 97.8125 C-13.55994629 98.49062744 -13.11989258 99.16875488 -12.66650391 99.86743164 C-11.67242645 101.39899858 -10.67289112 102.92703201 -9.66894531 104.45214844 C-7.20763071 108.20964979 -4.79896956 112.00027291 -2.38427734 115.7878418 C-0.34442502 118.98542805 1.70190297 122.17878293 3.75 125.37109375 C6.62954912 129.86039081 9.504466 134.35259368 12.375 138.84765625 C13.09421725 139.97340211 13.8134553 141.09913468 14.53271484 142.22485352 C15.88781298 144.34604856 17.24234192 146.46760739 18.59619141 148.58959961 C19.21671387 149.56034424 19.83723633 150.53108887 20.4765625 151.53125 C21.0634082 152.46195313 21.65025391 153.39265625 22.25488281 154.3515625 C23.95426291 157.00506944 23.95426291 157.00506944 25.86230469 159.3984375 C29.98472385 164.79845625 29.98472385 164.79845625 30.02758789 168.16992188 C29.52482898 170.53375244 28.80394969 172.72144103 28 175 C27.52198624 176.80974215 27.05493925 178.6224088 26.59765625 180.4375 C26.0887875 182.29245086 25.57704126 184.14661461 25.0625 186 C24.81048828 186.95261719 24.55847656 187.90523437 24.29882812 188.88671875 C24.04681641 189.79035156 23.79480469 190.69398438 23.53515625 191.625 C23.312229 192.44226563 23.08930176 193.25953125 22.85961914 194.1015625 C22.57594482 194.72804688 22.29227051 195.35453125 22 196 C21.01 196.33 20.02 196.66 19 197 C1.58092571 170.57264994 -15.82553199 144.13828912 -33.06347656 117.59228516 C-39.58105634 107.5589068 -46.13273452 97.54781904 -52.68505859 87.53710938 C-54.27432754 85.10898658 -55.86315449 82.68057534 -57.45166016 80.25195312 C-59.54045062 77.05849913 -61.62995031 73.86551017 -63.71990967 70.67282104 C-64.51263882 69.4616331 -65.30517022 68.25031569 -66.09747314 67.03884888 C-70.46397809 60.36284697 -74.85492685 53.70411254 -79.28344727 47.0690918 C-79.73993904 46.3847683 -80.19643082 45.70044479 -80.66675568 44.99538422 C-81.7776406 43.33012503 -82.88879206 41.66504366 -84 40 C-84.07034219 54.50881463 -84.1229109 69.0176025 -84.15543652 83.52655315 C-84.17085042 90.26458656 -84.19183394 97.00251349 -84.22631836 103.74047852 C-84.25905895 110.25034011 -84.276884 116.76009145 -84.28463173 123.27002907 C-84.2901489 125.74616034 -84.30092222 128.222286 -84.31719017 130.69836998 C-85.32717725 153.72394443 -85.32717725 153.72394443 -76 174 C-74.06934972 175.47530824 -72.06106688 176.70584173 -70 178 C-70 178.99 -70 179.98 -70 181 C-82.87 181 -95.74 181 -109 181 C-109 180.01 -109 179.02 -109 178 C-107.390625 176.4921875 -107.390625 176.4921875 -105.25 174.875 C-98.8568646 169.51155544 -96.75337526 163.15031098 -96 155 C-95.8366591 150.61635697 -95.82227168 146.23425844 -95.80712891 141.84790039 C-95.79486267 139.87591423 -95.79486267 139.87591423 -95.78234863 137.86408997 C-95.75629066 133.52529916 -95.74084506 129.18649944 -95.7265625 124.84765625 C-95.72119759 123.3486423 -95.71582008 121.8496284 -95.71043015 120.35061455 C-95.68883216 114.11474598 -95.67009554 107.87887985 -95.65880775 101.64298344 C-95.64256088 92.7294559 -95.60933031 83.8163635 -95.55240691 74.90299994 C-95.51366228 68.62083249 -95.4941702 62.33878127 -95.48888719 56.05649751 C-95.48524213 52.31030942 -95.47331033 48.5645872 -95.44078445 44.81852913 C-95.40501072 40.63925501 -95.40908607 36.46091488 -95.41650391 32.28149414 C-95.3918959 30.43358276 -95.3918959 30.43358276 -95.36679077 28.54833984 C-95.42938665 19.93075956 -97.15320269 14.85351074 -103.23828125 8.7578125 C-103.92277344 8.21898437 -104.60726562 7.68015625 -105.3125 7.125 C-106.57380294 6.12248565 -107.8131637 5.0896512 -109 4 C-109 3.34 -109 2.68 -109 2 C-80.05309054 -0.97812672 -80.05309054 -0.97812672 -72.4375 3.51025391 C-68.41869708 7.68290163 -66.36973681 12.86043454 -64.24023438 18.17675781 C-62.06342635 23.13199562 -58.98613944 27.5032815 -56 32 C-54.81364008 33.85417412 -53.63131694 35.71093753 -52.453125 37.5703125 C-51.87626953 38.4768457 -51.29941406 39.38337891 -50.70507812 40.31738281 C-42.74471742 52.84150129 -34.85102108 65.40710114 -27 78 C-24.4174519 71.71002045 -22.04604769 65.40098682 -19.9375 58.9375 C-19.33624216 57.11318081 -18.73465539 55.28897001 -18.1328125 53.46484375 C-17.80055664 52.45534668 -17.46830078 51.44584961 -17.12597656 50.40576172 C-15.84084739 46.51860821 -14.54257887 42.63597431 -13.2421875 38.75390625 C-12.75395772 37.29501326 -12.26575804 35.8361102 -11.77758789 34.37719727 C-11.05353893 32.21339314 -10.3291722 30.04969942 -9.60348511 27.88644409 C-8.91775179 25.84145981 -8.23363184 23.7959486 -7.55078125 21.75 C-7.33294479 21.09733658 -7.11510834 20.44467316 -6.89067078 19.77223206 C-5.08814056 14.33705363 -3.41476289 8.86883125 -1.78588867 3.37890625 C-1 1 -1 1 0 0 Z " fill="#FAF4E8" transform="translate(272,162)"/>
</svg>
